<svg xmlns="http://www.w3.org/2000/svg" xmlns:xlink="http://www.w3.org/1999/xlink" width="200" zoomAndPan="magnify" viewBox="0 0 150 37.5" height="50" preserveAspectRatio="xMidYMid meet" version="1.0"><defs><g/></defs><g fill="#00bf63" fill-opacity="1"><g transform="translate(1.78559, 27.264354)"><g><path d="M 2.328125 -13.234375 L 2.328125 -18.171875 L 6.890625 -18.171875 L 6.890625 -13.234375 L 9.671875 -13.234375 L 9.671875 -9.75 L 6.890625 -9.75 L 6.890625 -5.546875 C 6.890625 -4.328125 7.234375 -3.71875 7.921875 -3.71875 C 8.097656 -3.71875 8.28125 -3.75 8.46875 -3.8125 C 8.65625 -3.882812 8.800781 -3.957031 8.90625 -4.03125 L 9.0625 -4.125 L 10.203125 -0.4375 C 9.210938 0.113281 8.09375 0.390625 6.84375 0.390625 C 5.976562 0.390625 5.234375 0.238281 4.609375 -0.0625 C 3.992188 -0.363281 3.523438 -0.769531 3.203125 -1.28125 C 2.890625 -1.789062 2.664062 -2.320312 2.53125 -2.875 C 2.394531 -3.4375 2.328125 -4.035156 2.328125 -4.671875 L 2.328125 -9.75 L 0.40625 -9.75 L 0.40625 -13.234375 Z M 2.328125 -13.234375 "/></g></g></g><g fill="#00bf63" fill-opacity="1"><g transform="translate(11.002503, 27.264354)"><g><path d="M 1.984375 -20.625 C 2.515625 -21.15625 3.148438 -21.421875 3.890625 -21.421875 C 4.628906 -21.421875 5.265625 -21.15625 5.796875 -20.625 C 6.335938 -20.09375 6.609375 -19.457031 6.609375 -18.71875 C 6.609375 -17.976562 6.335938 -17.335938 5.796875 -16.796875 C 5.265625 -16.265625 4.628906 -16 3.890625 -16 C 3.148438 -16 2.515625 -16.265625 1.984375 -16.796875 C 1.453125 -17.335938 1.1875 -17.976562 1.1875 -18.71875 C 1.1875 -19.457031 1.453125 -20.09375 1.984375 -20.625 Z M 1.546875 -13.234375 L 1.546875 0 L 6.125 0 L 6.125 -13.234375 Z M 1.546875 -13.234375 "/></g></g></g><g fill="#00bf63" fill-opacity="1"><g transform="translate(17.818319, 27.264354)"><g><path d="M 8.59375 -9.890625 C 7.738281 -9.890625 7 -9.566406 6.375 -8.921875 C 5.757812 -8.285156 5.453125 -7.523438 5.453125 -6.640625 C 5.453125 -5.722656 5.757812 -4.945312 6.375 -4.3125 C 7 -3.675781 7.738281 -3.359375 8.59375 -3.359375 C 9.007812 -3.359375 9.398438 -3.410156 9.765625 -3.515625 C 10.140625 -3.617188 10.410156 -3.71875 10.578125 -3.8125 L 10.8125 -3.96875 L 12.359375 -0.796875 C 12.242188 -0.710938 12.078125 -0.601562 11.859375 -0.46875 C 11.640625 -0.34375 11.144531 -0.171875 10.375 0.046875 C 9.613281 0.273438 8.796875 0.390625 7.921875 0.390625 C 5.972656 0.390625 4.265625 -0.289062 2.796875 -1.65625 C 1.328125 -3.03125 0.59375 -4.671875 0.59375 -6.578125 C 0.59375 -8.503906 1.328125 -10.160156 2.796875 -11.546875 C 4.265625 -12.929688 5.972656 -13.625 7.921875 -13.625 C 8.796875 -13.625 9.601562 -13.519531 10.34375 -13.3125 C 11.082031 -13.113281 11.609375 -12.910156 11.921875 -12.703125 L 12.359375 -12.390625 L 10.8125 -9.265625 C 10.25 -9.679688 9.507812 -9.890625 8.59375 -9.890625 Z M 8.59375 -9.890625 "/></g></g></g><g fill="#00bf63" fill-opacity="1"><g transform="translate(29.513769, 27.264354)"><g><path d="M 16.671875 -13.234375 L 10.375 -6.921875 L 17.296875 0 L 11.40625 0 L 6.125 -5.296875 L 6.125 0 L 1.546875 0 L 1.546875 -22.203125 L 6.125 -22.203125 L 6.125 -8.625 L 10.734375 -13.234375 Z M 16.671875 -13.234375 "/></g></g></g><g fill="#00bf63" fill-opacity="1"><g transform="translate(45.211026, 27.264354)"><g><path d="M 14.953125 -5.984375 L 5.34375 -5.984375 C 5.34375 -5.054688 5.644531 -4.367188 6.25 -3.921875 C 6.851562 -3.472656 7.503906 -3.25 8.203125 -3.25 C 8.941406 -3.25 9.523438 -3.347656 9.953125 -3.546875 C 10.390625 -3.742188 10.882812 -4.132812 11.4375 -4.71875 L 14.734375 -3.078125 C 13.359375 -0.765625 11.070312 0.390625 7.875 0.390625 C 5.875 0.390625 4.160156 -0.289062 2.734375 -1.65625 C 1.304688 -3.03125 0.59375 -4.679688 0.59375 -6.609375 C 0.59375 -8.535156 1.304688 -10.1875 2.734375 -11.5625 C 4.160156 -12.9375 5.875 -13.625 7.875 -13.625 C 9.96875 -13.625 11.671875 -13.015625 12.984375 -11.796875 C 14.304688 -10.585938 14.96875 -8.859375 14.96875 -6.609375 C 14.96875 -6.296875 14.960938 -6.085938 14.953125 -5.984375 Z M 5.46875 -8.515625 L 10.5 -8.515625 C 10.394531 -9.203125 10.125 -9.726562 9.6875 -10.09375 C 9.25 -10.46875 8.6875 -10.65625 8 -10.65625 C 7.238281 -10.65625 6.632812 -10.457031 6.1875 -10.0625 C 5.75 -9.664062 5.507812 -9.148438 5.46875 -8.515625 Z M 5.46875 -8.515625 "/></g></g></g><g fill="#00bf63" fill-opacity="1"><g transform="translate(59.798104, 27.264354)"><g><path d="M 2.328125 -13.234375 L 2.328125 -18.171875 L 6.890625 -18.171875 L 6.890625 -13.234375 L 9.671875 -13.234375 L 9.671875 -9.75 L 6.890625 -9.75 L 6.890625 -5.546875 C 6.890625 -4.328125 7.234375 -3.71875 7.921875 -3.71875 C 8.097656 -3.71875 8.28125 -3.75 8.46875 -3.8125 C 8.65625 -3.882812 8.800781 -3.957031 8.90625 -4.03125 L 9.0625 -4.125 L 10.203125 -0.4375 C 9.210938 0.113281 8.09375 0.390625 6.84375 0.390625 C 5.976562 0.390625 5.234375 0.238281 4.609375 -0.0625 C 3.992188 -0.363281 3.523438 -0.769531 3.203125 -1.28125 C 2.890625 -1.789062 2.664062 -2.320312 2.53125 -2.875 C 2.394531 -3.4375 2.328125 -4.035156 2.328125 -4.671875 L 2.328125 -9.75 L 0.40625 -9.75 L 0.40625 -13.234375 Z M 2.328125 -13.234375 "/></g></g></g><g fill="#2c2b2b" fill-opacity="1"><g transform="translate(69.020111, 27.264354)"><g><path d="M 15.171875 -11.578125 C 16.410156 -10.222656 17.03125 -8.566406 17.03125 -6.609375 C 17.03125 -4.648438 16.410156 -2.992188 15.171875 -1.640625 C 13.929688 -0.285156 12.359375 0.390625 10.453125 0.390625 C 8.703125 0.390625 7.257812 -0.238281 6.125 -1.5 L 6.0625 -1.5 L 6.0625 0 L 1.546875 0 L 1.546875 -22.203125 L 6.125 -22.203125 L 6.125 -11.984375 C 7.257812 -13.078125 8.703125 -13.625 10.453125 -13.625 C 12.359375 -13.625 13.929688 -12.941406 15.171875 -11.578125 Z M 11.328125 -4.375 C 11.898438 -4.945312 12.1875 -5.6875 12.1875 -6.59375 C 12.1875 -7.507812 11.890625 -8.257812 11.296875 -8.84375 C 10.703125 -9.4375 9.96875 -9.734375 9.09375 -9.734375 C 8.226562 -9.734375 7.5 -9.4375 6.90625 -8.84375 C 6.3125 -8.257812 6.015625 -7.515625 6.015625 -6.609375 C 6.015625 -5.710938 6.300781 -4.972656 6.875 -4.390625 C 7.457031 -3.804688 8.195312 -3.515625 9.09375 -3.515625 C 10.019531 -3.515625 10.765625 -3.800781 11.328125 -4.375 Z M 11.328125 -4.375 "/></g></g></g><g fill="#2c2b2b" fill-opacity="1"><g transform="translate(85.672643, 27.264354)"><g><path d="M 2.796875 -1.5625 C 1.328125 -2.875 0.59375 -4.550781 0.59375 -6.59375 C 0.59375 -8.644531 1.359375 -10.328125 2.890625 -11.640625 C 4.421875 -12.960938 6.3125 -13.625 8.5625 -13.625 C 10.789062 -13.625 12.664062 -12.960938 14.1875 -11.640625 C 15.707031 -10.316406 16.46875 -8.640625 16.46875 -6.609375 C 16.46875 -4.578125 15.722656 -2.898438 14.234375 -1.578125 C 12.742188 -0.265625 10.851562 0.390625 8.5625 0.390625 C 6.1875 0.390625 4.265625 -0.257812 2.796875 -1.5625 Z M 6.34375 -8.84375 C 5.75 -8.257812 5.453125 -7.507812 5.453125 -6.59375 C 5.453125 -5.6875 5.734375 -4.945312 6.296875 -4.375 C 6.867188 -3.800781 7.617188 -3.515625 8.546875 -3.515625 C 9.441406 -3.515625 10.175781 -3.804688 10.75 -4.390625 C 11.320312 -4.972656 11.609375 -5.710938 11.609375 -6.609375 C 11.609375 -7.515625 11.3125 -8.257812 10.71875 -8.84375 C 10.125 -9.4375 9.398438 -9.734375 8.546875 -9.734375 C 7.671875 -9.734375 6.9375 -9.4375 6.34375 -8.84375 Z M 6.34375 -8.84375 "/></g></g></g><g fill="#2c2b2b" fill-opacity="1"><g transform="translate(101.757178, 27.264354)"><g><path d="M 2.328125 -13.234375 L 2.328125 -18.171875 L 6.890625 -18.171875 L 6.890625 -13.234375 L 9.671875 -13.234375 L 9.671875 -9.75 L 6.890625 -9.75 L 6.890625 -5.546875 C 6.890625 -4.328125 7.234375 -3.71875 7.921875 -3.71875 C 8.097656 -3.71875 8.28125 -3.75 8.46875 -3.8125 C 8.65625 -3.882812 8.800781 -3.957031 8.90625 -4.03125 L 9.0625 -4.125 L 10.203125 -0.4375 C 9.210938 0.113281 8.09375 0.390625 6.84375 0.390625 C 5.976562 0.390625 5.234375 0.238281 4.609375 -0.0625 C 3.992188 -0.363281 3.523438 -0.769531 3.203125 -1.28125 C 2.890625 -1.789062 2.664062 -2.320312 2.53125 -2.875 C 2.394531 -3.4375 2.328125 -4.035156 2.328125 -4.671875 L 2.328125 -9.75 L 0.40625 -9.75 L 0.40625 -13.234375 Z M 2.328125 -13.234375 "/></g></g></g><g fill="#2c2b2b" fill-opacity="1"><g transform="translate(110.97409, 27.264354)"><g><path d="M 2.328125 -13.234375 L 2.328125 -18.171875 L 6.890625 -18.171875 L 6.890625 -13.234375 L 9.671875 -13.234375 L 9.671875 -9.75 L 6.890625 -9.75 L 6.890625 -5.546875 C 6.890625 -4.328125 7.234375 -3.71875 7.921875 -3.71875 C 8.097656 -3.71875 8.28125 -3.75 8.46875 -3.8125 C 8.65625 -3.882812 8.800781 -3.957031 8.90625 -4.03125 L 9.0625 -4.125 L 10.203125 -0.4375 C 9.210938 0.113281 8.09375 0.390625 6.84375 0.390625 C 5.976562 0.390625 5.234375 0.238281 4.609375 -0.0625 C 3.992188 -0.363281 3.523438 -0.769531 3.203125 -1.28125 C 2.890625 -1.789062 2.664062 -2.320312 2.53125 -2.875 C 2.394531 -3.4375 2.328125 -4.035156 2.328125 -4.671875 L 2.328125 -9.75 L 0.40625 -9.75 L 0.40625 -13.234375 Z M 2.328125 -13.234375 "/></g></g></g><g fill="#2c2b2b" fill-opacity="1"><g transform="translate(120.191002, 27.264354)"><g><path d="M 1.546875 0 L 1.546875 -22.203125 L 6.125 -22.203125 L 6.125 0 Z M 1.546875 0 "/></g></g></g><g fill="#2c2b2b" fill-opacity="1"><g transform="translate(126.877733, 27.264354)"><g><path d="M 14.953125 -5.984375 L 5.34375 -5.984375 C 5.34375 -5.054688 5.644531 -4.367188 6.25 -3.921875 C 6.851562 -3.472656 7.503906 -3.25 8.203125 -3.25 C 8.941406 -3.25 9.523438 -3.347656 9.953125 -3.546875 C 10.390625 -3.742188 10.882812 -4.132812 11.4375 -4.71875 L 14.734375 -3.078125 C 13.359375 -0.765625 11.070312 0.390625 7.875 0.390625 C 5.875 0.390625 4.160156 -0.289062 2.734375 -1.65625 C 1.304688 -3.03125 0.59375 -4.679688 0.59375 -6.609375 C 0.59375 -8.535156 1.304688 -10.1875 2.734375 -11.5625 C 4.160156 -12.9375 5.875 -13.625 7.875 -13.625 C 9.96875 -13.625 11.671875 -13.015625 12.984375 -11.796875 C 14.304688 -10.585938 14.96875 -8.859375 14.96875 -6.609375 C 14.96875 -6.296875 14.960938 -6.085938 14.953125 -5.984375 Z M 5.46875 -8.515625 L 10.5 -8.515625 C 10.394531 -9.203125 10.125 -9.726562 9.6875 -10.09375 C 9.25 -10.46875 8.6875 -10.65625 8 -10.65625 C 7.238281 -10.65625 6.632812 -10.457031 6.1875 -10.0625 C 5.75 -9.664062 5.507812 -9.148438 5.46875 -8.515625 Z M 5.46875 -8.515625 "/></g></g></g><g fill="#2c2b2b" fill-opacity="1"><g transform="translate(141.464814, 27.264354)"><g><path d="M 4.484375 -5.53125 C 5.316406 -5.53125 6.019531 -5.238281 6.59375 -4.65625 C 7.164062 -4.082031 7.453125 -3.382812 7.453125 -2.5625 C 7.453125 -1.75 7.164062 -1.050781 6.59375 -0.46875 C 6.019531 0.101562 5.316406 0.390625 4.484375 0.390625 C 3.679688 0.390625 2.988281 0.101562 2.40625 -0.46875 C 1.832031 -1.050781 1.546875 -1.75 1.546875 -2.5625 C 1.546875 -3.382812 1.832031 -4.082031 2.40625 -4.65625 C 2.988281 -5.238281 3.679688 -5.53125 4.484375 -5.53125 Z M 4.484375 -5.53125 "/></g></g></g></svg>